<svg id="Layer_1" data-name="Layer 1" xmlns="http://www.w3.org/2000/svg" xmlns:xlink="http://www.w3.org/1999/xlink" viewBox="0 0 463.51 299.06"><defs><style>.cls-1,.cls-2,.cls-3,.cls-4,.cls-5,.cls-6,.cls-7{stroke:#414042;}.cls-1,.cls-2,.cls-3,.cls-4,.cls-5,.cls-6,.cls-7,.cls-8{stroke-miterlimit:10;}.cls-1,.cls-2,.cls-3,.cls-4,.cls-8{stroke-width:0.5px;}.cls-1{fill:url(#Cast_Iron);}.cls-2{fill:url(#Cast_Iron-2);}.cls-3{fill:url(#Cast_Iron-3);}.cls-4{fill:url(#Cast_Iron-4);}.cls-5,.cls-6,.cls-7{stroke-width:0.75px;}.cls-5{fill:url(#Cast_Iron-5);}.cls-6{fill:url(#Cast_Iron-6);}.cls-7{fill:url(#Cast_Iron-7);}.cls-8{font-size:27px;fill:#565759;stroke:#363436;font-family:TwCenMT-Condensed, Tw Cen MT Condensed;letter-spacing:-0.03em;}.cls-9{letter-spacing:-0.04em;}.cls-10{letter-spacing:-0.05em;}.cls-11{letter-spacing:-0.04em;}.cls-12{letter-spacing:-0.08em;}.cls-13{letter-spacing:-0.03em;}</style><linearGradient id="Cast_Iron" x1="6.96" y1="22.26" x2="454.64" y2="22.26" gradientUnits="userSpaceOnUse"><stop offset="0.01" stop-color="#85878d"/><stop offset="0.53" stop-color="#979899"/><stop offset="1" stop-color="#5d5c62"/></linearGradient><linearGradient id="Cast_Iron-2" x1="11.51" y1="269.56" x2="452.62" y2="269.56" xlink:href="#Cast_Iron"/><linearGradient id="Cast_Iron-3" x1="54.46" y1="185.75" x2="112.92" y2="185.75" xlink:href="#Cast_Iron"/><linearGradient id="Cast_Iron-4" x1="72.56" y1="376.94" x2="230.85" y2="376.94" xlink:href="#Cast_Iron"/><linearGradient id="Cast_Iron-5" x1="183.3" y1="175.64" x2="267.68" y2="175.64" xlink:href="#Cast_Iron"/><linearGradient id="Cast_Iron-6" x1="355.28" y1="419.39" x2="439.8" y2="419.39" xlink:href="#Cast_Iron"/><linearGradient id="Cast_Iron-7" x1="451.06" y1="419.6" x2="535.45" y2="419.6" xlink:href="#Cast_Iron"/></defs><polygon class="cls-1" points="454.64 44.27 230.8 0.26 6.96 44.27 233.69 14.55 454.64 44.27"/><polygon class="cls-2" points="11.51 246.38 230.8 298.8 452.62 240.32 233.69 284.17 11.51 246.38"/><polygon class="cls-3" points="65.57 231.73 112.92 173.21 89.53 173.52 108.52 139.76 72.14 139.76 54.45 189.79 78.21 188.91 65.57 231.73"/><path class="cls-4" d="M230.63,386.17c-2-20.05-24.34-40.95-49.57-38.55-26.49-43.79-71.89-28.5-89.47-13a4.54,4.54,0,0,1-1.7,1.58c-.43.43-.84.85-1.23,1.27a5.07,5.07,0,0,1-.56.81c-.09.2-.19.39-.3.59l-.79,1a5.23,5.23,0,0,1-.73.59c-.09.15-.2.29-.29.43-37.09,59.68,12.74,85.44,28.43,91.23a2.43,2.43,0,0,1,.2-.25h0l4.09-13.36c-49.57-26.73-24.91-64.3-15.84-73s48.85-28.78,70,21.07c18.91-11.3,34.89,1.41,39.35,10.31,4.06,8.07,8.69,30.81-13.8,40.58L184.63,435C212.43,435.13,233.24,411.74,230.63,386.17Z" transform="translate(-72.31 -243.75)"/><polygon class="cls-5" points="208.06 179.94 208.06 136.99 183.3 136.99 183.3 197.11 259.1 197.11 259.1 205.2 183.3 205.2 183.3 214.29 267.68 214.29 267.68 188.52 191.89 188.02 191.89 146.08 199.98 146.08 200.48 180.44 208.06 179.94"/><path class="cls-6" d="M381.49,432.26l.08,25.78H355.28v-43.2h66.79a13.17,13.17,0,0,0-2-25.77H364.13l-.16,9.09c18,.17,36.09-.2,54.12,0,4.68.42,4.25,3.64,4.34,5.53.25,5.87-21.71,2.38-66.73,3.49l.09-26.42h65.27a22,22,0,0,1,1.52,43.2H364.47l-.11,25.61,8.44.16-.16-17.44Z" transform="translate(-72.31 -243.75)"/><path class="cls-7" d="M535.45,432.3h-8.68v17.23H486.3c-15.45-2.07-26.85-15.28-26.68-30.14.15-13.63,10.26-26.43,24.12-29.6l43.15-.13v8.43l-41.36.25C475.14,401,467.45,410.92,468,421.19c.55,9.4,8.22,17.45,17.69,19.8h32.61l.13-8.7H486.81a13.19,13.19,0,0,1-.9-25.41l49.54-.07V380.73H480.68c-16.62,5.67-29.67,22-29.62,38.66.07,19,14.76,36,34.85,39.08h49.54Z" transform="translate(-72.31 -243.75)"/><text class="cls-8" transform="translate(183.3 111.57)">LIGHTNING P<tspan class="cls-9" x="90.55" y="0">R</tspan><tspan class="cls-10" x="99.23" y="0">O</tspan><tspan class="cls-11" x="110.19" y="0">TECTION &amp; CONSU</tspan><tspan class="cls-12" x="237.54" y="0">L</tspan><tspan class="cls-13" x="244.19" y="0">TING</tspan></text></svg>